<svg width="223" height="110" viewBox="0 0 223 110" fill="none" xmlns="http://www.w3.org/2000/svg">
<mask id="mask0_652_57" style="mask-type:alpha" maskUnits="userSpaceOnUse" x="0" y="0" width="56" height="97">
<path fill-rule="evenodd" clip-rule="evenodd" d="M0 0H55.5646V96.6264H0V0Z" fill="white"/>
</mask>
<g mask="url(#mask0_652_57)">
<path fill-rule="evenodd" clip-rule="evenodd" d="M34.6008 91.259C34.2139 91.6358 33.679 91.8696 33.0895 91.8696H22.106C20.9259 91.8696 19.9677 90.9364 19.9677 89.7882C19.9677 89.2131 20.2067 88.6932 20.5947 88.3164C20.9817 87.9386 21.5154 87.7058 22.106 87.7058H33.0895C34.2685 87.7058 35.2268 88.639 35.2268 89.7882C35.2268 90.3623 34.9867 90.8832 34.6008 91.259M49.8687 1.48777H45.5341C45.0035 0.603645 44.0291 -0.000732422 42.9069 -0.000732422H40.6174C38.9388 -0.000732422 37.5647 1.33746 37.5647 2.97314C37.5647 4.60778 38.9388 5.94597 40.6174 5.94597H42.9069C44.0291 5.94597 45.0035 5.34159 45.5341 4.45851H48.1365C50.1913 4.45851 51.8506 6.07436 51.8506 8.07538V79.9264C51.8506 81.9274 50.1913 83.5422 48.1365 83.5422H7.42591C5.37113 83.5422 3.71402 81.9274 3.71402 79.9264V8.07538C3.71402 6.07436 5.37113 4.45851 7.42591 4.45851H10.202C10.7326 5.34159 11.7091 5.94597 12.8292 5.94597H15.1198C16.7994 5.94597 18.1725 4.60778 18.1725 2.97314C18.1725 1.33746 16.7994 -0.000732422 15.1198 -0.000732422H12.8292C11.708 -0.000732422 10.7326 0.603645 10.202 1.48777H5.69377C2.56069 1.48777 0 3.98357 0 7.03468V91.0797C0 94.1308 2.56069 96.6266 5.69377 96.6266H49.8687C53.0018 96.6266 55.5646 94.1308 55.5646 91.0797V7.03468C55.5646 3.98357 53.0018 1.48777 49.8687 1.48777" fill="#5375E8"/>
<path fill-rule="evenodd" clip-rule="evenodd" d="M44.1634 43.1698V43.6344C44.1634 45.9632 42.2121 47.8595 39.811 47.8595H33.1819V54.2959C33.1819 56.6268 31.2285 58.521 28.8295 58.521H28.351C25.952 58.521 23.9986 56.6268 23.9986 54.2959V47.8595H17.3685C14.9706 47.8595 13.0161 45.9632 13.0161 43.6344V43.1698C13.0161 40.842 14.9706 38.9447 17.3685 38.9447H23.9986V32.5094C23.9986 30.1805 25.952 28.2842 28.351 28.2842H28.8295C31.2285 28.2842 33.1819 30.1805 33.1819 32.5094V38.9447H39.811C42.2121 38.9447 44.1634 40.842 44.1634 43.1698" fill="#5375E8"/>
</g>
<path fill-rule="evenodd" clip-rule="evenodd" d="M72.0498 51.809C69.5453 51.809 67.5053 49.8237 67.5053 47.3864C67.5053 44.9604 69.5453 42.9751 72.0498 42.9751C74.5437 42.9751 76.5837 44.9604 76.5837 47.3864C76.5837 49.8237 74.5437 51.809 72.0498 51.809M81.868 47.3865C81.868 42.1215 77.4611 37.8328 72.05 37.8328C66.6283 37.8328 62.2213 42.1215 62.2213 47.3865C62.2213 52.1695 65.8474 56.1287 70.5602 56.8289C70.8025 58.9676 71.1093 61.1692 71.4373 63.4726C73.3609 77.0587 75.3586 91.1081 64.473 99.1409C49.5295 109.601 37.6609 101.362 32.9788 97.0022H26.1309C26.2367 97.2792 26.3848 97.5572 26.6059 97.8445C26.7329 97.999 35.8537 109.446 49.8353 109.446C55.1416 109.446 61.1431 107.801 67.6123 103.275C81.012 93.392 78.6017 76.411 76.6685 62.7632C76.3416 60.4803 76.0347 58.3086 75.802 56.2214C79.3635 54.7819 81.868 51.3673 81.868 47.3865Z" fill="#5375E8"/>
<path d="M96.4005 59H92.2605V26.78H96.4005L107.606 46.4H107.786L118.991 26.78H123.131V59H118.991V39.875L119.171 34.475H118.991L108.911 52.16H106.481L96.4005 34.475H96.2205L96.4005 39.875V59ZM138.794 59.72C135.554 59.72 132.884 58.61 130.784 56.39C128.684 54.17 127.634 51.365 127.634 47.975C127.634 44.615 128.654 41.825 130.694 39.605C132.734 37.355 135.344 36.23 138.524 36.23C141.794 36.23 144.389 37.295 146.309 39.425C148.259 41.525 149.234 44.48 149.234 48.29L149.189 48.74H131.864C131.924 50.9 132.644 52.64 134.024 53.96C135.404 55.28 137.054 55.94 138.974 55.94C141.614 55.94 143.684 54.62 145.184 51.98L148.874 53.78C147.884 55.64 146.504 57.095 144.734 58.145C142.994 59.195 141.014 59.72 138.794 59.72ZM132.179 45.32H144.824C144.704 43.79 144.074 42.53 142.934 41.54C141.824 40.52 140.324 40.01 138.434 40.01C136.874 40.01 135.524 40.49 134.384 41.45C133.274 42.41 132.539 43.7 132.179 45.32ZM153.74 59V26.78H163.595C168.515 26.78 172.46 28.265 175.43 31.235C178.43 34.205 179.93 38.09 179.93 42.89C179.93 47.72 178.43 51.62 175.43 54.59C172.46 57.53 168.515 59 163.595 59H153.74ZM157.88 30.74V55.04H163.595C167.345 55.04 170.3 53.975 172.46 51.845C174.62 49.685 175.7 46.7 175.7 42.89C175.7 39.11 174.62 36.14 172.46 33.98C170.3 31.82 167.345 30.74 163.595 30.74H157.88ZM189.488 29.345C189.488 30.155 189.203 30.845 188.633 31.415C188.063 31.985 187.373 32.27 186.563 32.27C185.753 32.27 185.063 31.985 184.493 31.415C183.923 30.845 183.638 30.155 183.638 29.345C183.638 28.535 183.923 27.845 184.493 27.275C185.063 26.705 185.753 26.42 186.563 26.42C187.373 26.42 188.063 26.705 188.633 27.275C189.203 27.845 189.488 28.535 189.488 29.345ZM188.633 36.95V59H184.493V36.95H188.633ZM210.896 52.88C210.896 54.8 210.056 56.42 208.376 57.74C206.696 59.06 204.581 59.72 202.031 59.72C199.811 59.72 197.861 59.15 196.181 58.01C194.501 56.84 193.301 55.31 192.581 53.42L196.271 51.845C196.811 53.165 197.591 54.2 198.611 54.95C199.661 55.67 200.801 56.03 202.031 56.03C203.351 56.03 204.446 55.745 205.316 55.175C206.216 54.605 206.666 53.93 206.666 53.15C206.666 51.74 205.586 50.705 203.426 50.045L199.646 49.1C195.356 48.02 193.211 45.95 193.211 42.89C193.211 40.88 194.021 39.275 195.641 38.075C197.291 36.845 199.391 36.23 201.941 36.23C203.891 36.23 205.646 36.695 207.206 37.625C208.796 38.555 209.906 39.8 210.536 41.36L206.846 42.89C206.426 41.96 205.736 41.24 204.776 40.73C203.846 40.19 202.796 39.92 201.626 39.92C200.546 39.92 199.571 40.19 198.701 40.73C197.861 41.27 197.441 41.93 197.441 42.71C197.441 43.97 198.626 44.87 200.996 45.41L204.326 46.265C208.706 47.345 210.896 49.55 210.896 52.88Z" fill="#777A95"/>
</svg>
